<svg width="42" height="42" viewBox="0 0 42 42" fill="none" xmlns="http://www.w3.org/2000/svg">
<path d="M26.8441 34.5686C26.6499 34.7628 26.4194 34.9169 26.1657 35.022C25.912 35.1272 25.6401 35.1813 25.3655 35.1813C25.0908 35.1813 24.8189 35.1272 24.5652 35.022C24.3115 34.9169 24.081 34.7628 23.8869 34.5686L11.8585 22.5421C10.1237 20.7719 9.15752 18.3886 9.17004 15.91C9.18256 13.4315 10.1727 11.058 11.9253 9.30537C13.678 7.55275 16.0514 6.5626 18.53 6.55008C21.0085 6.53756 23.3919 7.50369 25.1621 9.23851L32.7642 16.8406C33.1553 17.2337 33.3743 17.7662 33.3728 18.3208C33.3714 18.8753 33.1497 19.4067 32.7566 19.7978C32.3634 20.1889 31.831 20.4079 31.2764 20.4065C30.7218 20.405 30.1905 20.1833 29.7994 19.7902L22.2068 12.1881C21.2259 11.2072 19.8956 10.6562 18.5084 10.6562C17.1212 10.6562 15.7909 11.2072 14.81 12.1881C13.8291 13.169 13.2781 14.4994 13.2781 15.8865C13.2781 17.2737 13.8291 18.6041 14.81 19.5849L26.8384 31.6133C27.2308 32.0046 27.4519 32.5356 27.4529 33.0898C27.454 33.6439 27.235 34.1759 26.8441 34.5686Z" fill="#7C5CFC"/>
</svg>
