<svg width="131" height="42" viewBox="0 0 131 42" fill="none" xmlns="http://www.w3.org/2000/svg">
<path d="M26.8441 34.5686C26.6499 34.7628 26.4194 34.9169 26.1657 35.022C25.912 35.1272 25.6401 35.1813 25.3655 35.1813C25.0908 35.1813 24.8189 35.1272 24.5652 35.022C24.3115 34.9169 24.081 34.7628 23.8869 34.5686L11.8585 22.5421C10.1237 20.7719 9.15752 18.3886 9.17004 15.91C9.18256 13.4315 10.1727 11.058 11.9253 9.30537C13.678 7.55275 16.0514 6.5626 18.53 6.55008C21.0085 6.53756 23.3919 7.50369 25.1621 9.23851L32.7642 16.8406C33.1553 17.2337 33.3743 17.7662 33.3728 18.3208C33.3714 18.8753 33.1497 19.4067 32.7566 19.7978C32.3634 20.1889 31.831 20.4079 31.2764 20.4065C30.7218 20.405 30.1905 20.1833 29.7994 19.7902L22.2068 12.1881C21.2259 11.2072 19.8956 10.6562 18.5084 10.6562C17.1212 10.6562 15.7909 11.2072 14.81 12.1881C13.8291 13.169 13.2781 14.4994 13.2781 15.8865C13.2781 17.2737 13.8291 18.6041 14.81 19.5849L26.8384 31.6133C27.2308 32.0046 27.4519 32.5356 27.4529 33.0898C27.454 33.6439 27.235 34.1759 26.8441 34.5686Z" fill="#7C5CFC"/>
<path d="M50.671 30.86V15.2657H54.5696V16.9635H55.1355C55.408 16.4395 55.8586 15.9888 56.4874 15.6116C57.1162 15.2133 57.9441 15.0142 58.9712 15.0142C60.0821 15.0142 60.9729 15.2343 61.6436 15.6744C62.3143 16.0936 62.8278 16.6491 63.1841 17.3408H63.7501C64.1064 16.67 64.6094 16.1146 65.2592 15.6744C65.9089 15.2343 66.8312 15.0142 68.0259 15.0142C68.9901 15.0142 69.8599 15.2238 70.6354 15.643C71.4319 16.0412 72.0607 16.6596 72.5218 17.498C73.0039 18.3154 73.2449 19.3529 73.2449 20.6105V30.86H69.2835V20.8935C69.2835 20.0341 69.0634 19.3948 68.6233 18.9756C68.1831 18.5355 67.5648 18.3154 66.7683 18.3154C65.867 18.3154 65.1649 18.6088 64.6618 19.1957C64.1797 19.7616 63.9387 20.5791 63.9387 21.648V30.86H59.9773V20.8935C59.9773 20.0341 59.7572 19.3948 59.317 18.9756C58.8769 18.5355 58.2585 18.3154 57.4621 18.3154C56.5608 18.3154 55.8586 18.6088 55.3556 19.1957C54.8735 19.7616 54.6325 20.5791 54.6325 21.648V30.86H50.671ZM83.6985 31.3001C82.1474 31.3001 80.7746 30.9752 79.5798 30.3255C78.4061 29.6548 77.4838 28.722 76.8131 27.5273C76.1634 26.3116 75.8385 24.8864 75.8385 23.2515V22.8742C75.8385 21.2393 76.1634 19.8245 76.8131 18.6298C77.4629 17.4141 78.3746 16.4814 79.5484 15.8316C80.7222 15.1609 82.0846 14.8256 83.6356 14.8256C85.1657 14.8256 86.4966 15.1714 87.6285 15.8631C88.7603 16.5338 89.6406 17.477 90.2694 18.6927C90.8982 19.8874 91.2126 21.2812 91.2126 22.8742V24.2261H79.8628C79.9047 25.2951 80.303 26.1649 81.0575 26.8356C81.8121 27.5064 82.7343 27.8417 83.8242 27.8417C84.9351 27.8417 85.7526 27.6007 86.2766 27.1186C86.8006 26.6365 87.1988 26.102 87.4713 25.5152L90.7096 27.2129C90.4162 27.7579 89.9865 28.3552 89.4206 29.005C88.8756 29.6338 88.142 30.1788 87.2198 30.6399C86.2975 31.08 85.1238 31.3001 83.6985 31.3001ZM79.8942 21.2708H87.1883C87.1045 20.3695 86.7377 19.6464 86.0879 19.1014C85.4591 18.5564 84.6312 18.284 83.6042 18.284C82.5352 18.284 81.6863 18.5564 81.0575 19.1014C80.4287 19.6464 80.041 20.3695 79.8942 21.2708ZM93.7954 30.86V15.2657H97.694V17.3093H98.2599C98.5114 16.7644 98.983 16.2508 99.6747 15.7688C100.366 15.2657 101.414 15.0142 102.819 15.0142C104.034 15.0142 105.093 15.2972 105.994 15.8631C106.916 16.408 107.629 17.1731 108.132 18.1582C108.635 19.1224 108.887 20.2542 108.887 21.5537V30.86H104.925V21.8681C104.925 20.6944 104.632 19.814 104.045 19.2272C103.479 18.6403 102.661 18.3468 101.593 18.3468C100.377 18.3468 99.4336 18.7556 98.7629 19.573C98.0922 20.3695 97.7568 21.4908 97.7568 22.9371V30.86H93.7954ZM118.514 31.3001C117.277 31.3001 116.114 30.9962 115.024 30.3884C113.955 29.7596 113.096 28.8478 112.446 27.6531C111.796 26.4584 111.471 25.0121 111.471 23.3144V22.8113C111.471 21.1136 111.796 19.6673 112.446 18.4726C113.096 17.2779 113.955 16.3766 115.024 15.7688C116.093 15.14 117.256 14.8256 118.514 14.8256C119.457 14.8256 120.243 14.9408 120.872 15.1714C121.522 15.381 122.046 15.6535 122.444 15.9888C122.842 16.3242 123.146 16.6805 123.356 17.0578H123.922V8.85195H127.883V30.86H123.984V28.9736H123.419C123.062 29.5604 122.507 30.0949 121.752 30.577C121.019 31.0591 119.939 31.3001 118.514 31.3001ZM119.709 27.8417C120.924 27.8417 121.941 27.454 122.758 26.6784C123.576 25.882 123.984 24.7292 123.984 23.22V22.9056C123.984 21.3965 123.576 20.2542 122.758 19.4787C121.962 18.6822 120.945 18.284 119.709 18.284C118.493 18.284 117.476 18.6822 116.659 19.4787C115.841 20.2542 115.433 21.3965 115.433 22.9056V23.22C115.433 24.7292 115.841 25.882 116.659 26.6784C117.476 27.454 118.493 27.8417 119.709 27.8417Z" fill="white"/>
</svg>
